# xmcd CD database file
#
# Track frame offsets:
#	150
#	27670
#	49145
#	76515
#	101695
#	109845
#	138962
#	151450
#	175540
#
# Disc length: 2621 seconds
#
# Revision: 0
# Processed by: cddbd v1.5.2PL0 Copyright (c) Steve Scherf et al.
# Submitted via: CDex 1.70beta3
#
DISCID=680a3b09
DTITLE=福澤もろ - ホウリーナイト
DYEAR=1900
DGENRE=New Age
TTITLE0=ホウリーナイト
TTITLE1=クセル　クセス
TTITLE2=サザーン　グローリー
TTITLE3=カント　デ　ル　コスモ
TTITLE4=アヴェ　マリア 
TTITLE5=若草への誘い
TTITLE6=ピエ　アンドレ
TTITLE7=命の夜明け
TTITLE8=聖銀河
EXTD=
EXTT0=
EXTT1=
EXTT2=
EXTT3=
EXTT4=
EXTT5=
EXTT6=
EXTT7=
EXTT8=
PLAYORDER=
